<svg width="44" height="44" viewBox="0 0 44 44" fill="none" xmlns="http://www.w3.org/2000/svg">
<g id="Logo">
<path id="Vector" d="M25.0544 2.62001L37.4294 9.91668L37.6054 10.0322L37.7759 10.1752L37.9702 10.3108C38.6578 10.8259 39.2247 11.4849 39.6313 12.2417C40.0378 12.9984 40.2743 13.8349 40.3242 14.6925L40.3334 15.0665V28.4205C40.3334 30.5747 39.1546 32.5565 37.3579 33.541L24.8839 41.428C23.0872 42.4143 20.9129 42.4143 19.0172 41.3693L6.74308 33.6015C5.81358 33.0923 5.0378 32.3429 4.49668 31.4315C3.95556 30.5202 3.66895 29.4804 3.66675 28.4205V15.0647C3.66675 13.037 4.71175 11.1633 6.37275 10.1055L19.1144 2.59251C20.9477 1.58051 23.1734 1.58051 25.0544 2.62001ZM25.6667 12.8335H22.0001C20.5414 12.8335 19.1424 13.413 18.111 14.4444C17.0795 15.4759 16.5001 16.8748 16.5001 18.3335V25.6668C16.5001 27.1255 17.0795 28.5245 18.111 29.5559C19.1424 30.5874 20.5414 31.1668 22.0001 31.1668H25.6667C26.153 31.1668 26.6193 30.9737 26.9631 30.6299C27.3069 30.2861 27.5001 29.8197 27.5001 29.3335V22.0002C27.5001 21.5139 27.3069 21.0476 26.9631 20.7038C26.6193 20.36 26.153 20.1668 25.6667 20.1668H23.8334C23.3472 20.1668 22.8809 20.36 22.5371 20.7038C22.1932 21.0476 22.0001 21.5139 22.0001 22.0002L22.0129 22.2147C22.0655 22.6606 22.2798 23.0718 22.6154 23.3702C22.951 23.6686 23.3844 23.8335 23.8334 23.8335V27.5002H22.0001C21.5139 27.5002 21.0475 27.307 20.7037 26.9632C20.3599 26.6194 20.1667 26.1531 20.1667 25.6668V18.3335C20.1667 17.8473 20.3599 17.381 20.7037 17.0372C21.0475 16.6933 21.5139 16.5002 22.0001 16.5002H25.6667C26.153 16.5002 26.6193 16.307 26.9631 15.9632C27.3069 15.6194 27.5001 15.1531 27.5001 14.6668C27.5001 14.1806 27.3069 13.7143 26.9631 13.3705C26.6193 13.0267 26.153 12.8335 25.6667 12.8335Z" fill="url(#paint0_linear_1218_391)"/>
</g>
<defs>
<linearGradient id="paint0_linear_1218_391" x1="5.49938" y1="42.1606" x2="70.7144" y2="-2.61885" gradientUnits="userSpaceOnUse">
<stop stop-color="#4C6DD0"/>
<stop offset="1" stop-color="#04BEFE"/>
</linearGradient>
</defs>
</svg>
